HIERARCHY
ROOT hips
{
  OFFSET 0 10.074487846421558 1.314567655973056
  CHANNELS 6 Xposition Yposition Zposition Yrotation Xrotation Zrotation
  JOINT spine
  {
    OFFSET -7.042773748992335e-31 0.5690686926897363 0
    CHANNELS 3 Yrotation Xrotation Zrotation
    JOINT chest
    {
      OFFSET 0 1.2435964857087873 0
      CHANNELS 3 Yrotation Xrotation Zrotation
      JOINT upperChest
      {
        OFFSET 0 1.194994586872362 0
        CHANNELS 3 Yrotation Xrotation Zrotation
        JOINT neck
        {
          OFFSET 0 1.515103653293861 0
          CHANNELS 3 Yrotation Xrotation Zrotation
          JOINT head
          {
            OFFSET 0 0.8111851616465653 0
            CHANNELS 3 Yrotation Xrotation Zrotation
            JOINT leftEye
            {
              OFFSET 0.27141371691966987 0.7490044407698551 0.18219031050045686
              CHANNELS 3 Yrotation Xrotation Zrotation
              End Site
              {
                OFFSET 0.27141371691966987 0.7490044407698551 0.18219031050045686
              }
            }
            JOINT rightEye
            {
              OFFSET -0.2714136877644943 0.7490044019380786 0.18219040411850668
              CHANNELS 3 Yrotation Xrotation Zrotation
              End Site
              {
                OFFSET -0.2714136877644943 0.7490044019380786 0.18219040411850668
              }
            }
          }
        }
        JOINT leftShoulder
        {
          OFFSET 0.4137993136083964 1.1593397335613034 0
          CHANNELS 3 Yrotation Xrotation Zrotation
          JOINT leftUpperArm
          {
            OFFSET 1.0096991868951026 0 0
            CHANNELS 3 Yrotation Xrotation Zrotation
            JOINT leftLowerArm
            {
              OFFSET 2.418380967671622 0 0
              CHANNELS 3 Yrotation Xrotation Zrotation
              JOINT leftHand
              {
                OFFSET 2.361538296260114 0 0
                CHANNELS 3 Yrotation Xrotation Zrotation
                JOINT leftIndexProximal
                {
                  OFFSET 0.7243699271447109 0.08118285989887508 0.2022042461579805
                  CHANNELS 3 Yrotation Xrotation Zrotation
                  JOINT leftIndexIntermediate
                  {
                    OFFSET 0.36553107045252053 -0.010567764853200323 -0.014102670024158437
                    CHANNELS 3 Yrotation Xrotation Zrotation
                    JOINT leftIndexDistal
                    {
                      OFFSET 0.22505120770060527 -0.007821041598631284 -0.007511611613336286
                      CHANNELS 3 Yrotation Xrotation Zrotation
                      End Site
                      {
                        OFFSET 0.22505120770060527 -0.007821041598631284 -0.007511611613336286
                      }
                    }
                  }
                }
                JOINT leftLittleProximal
                {
                  OFFSET 0.6721063881632002 0.08118279568569564 -0.3209324945517917
                  CHANNELS 3 Yrotation Xrotation Zrotation
                  JOINT leftLittleIntermediate
                  {
                    OFFSET 0.34587329423120616 5.3042709780015684e-8 -5.929537746918179e-8
                    CHANNELS 3 Yrotation Xrotation Zrotation
                    JOINT leftLittleDistal
                    {
                      OFFSET 0.1992782500022232 0.0030983716482184676 0.0038310952896712935
                      CHANNELS 3 Yrotation Xrotation Zrotation
                      End Site
                      {
                        OFFSET 0.1992782500022232 0.0030983716482184676 0.0038310952896712935
                      }
                    }
                  }
                }
                JOINT leftMiddleProximal
                {
                  OFFSET 0.7301229696860206 0.08118412848995638 0.022516891543707507
                  CHANNELS 3 Yrotation Xrotation Zrotation
                  JOINT leftMiddleIntermediate
                  {
                    OFFSET 0.4076277831942017 -0.000001240188283180288 -1.6203245635504349e-7
                    CHANNELS 3 Yrotation Xrotation Zrotation
                    JOINT leftMiddleDistal
                    {
                      OFFSET 0.2514739255593972 0.0000013850839168938478 -1.8644847207816007e-8
                      CHANNELS 3 Yrotation Xrotation Zrotation
                      End Site
                      {
                        OFFSET 0.2514739255593972 0.0000013850839168938478 -1.8644847207816007e-8
                      }
                    }
                  }
                }
                JOINT leftRingProximal
                {
                  OFFSET 0.7218060861525873 0.08118280646416753 -0.1494689818508163
                  CHANNELS 3 Yrotation Xrotation Zrotation
                  JOINT leftRingIntermediate
                  {
                    OFFSET 0.3781267508900358 0.000001373626195677602 -1.4143108284514483e-7
                    CHANNELS 3 Yrotation Xrotation Zrotation
                    JOINT leftRingDistal
                    {
                      OFFSET 0.21814333268795483 -0.0027137626495670197 -0.004991775417842292
                      CHANNELS 3 Yrotation Xrotation Zrotation
                      End Site
                      {
                        OFFSET 0.21814333268795483 -0.0027137626495670197 -0.004991775417842292
                      }
                    }
                  }
                }
                JOINT leftThumbProximal
                {
                  OFFSET 0.10743676110519984 -0.16423092885053192 -0.07708859146227388
                  CHANNELS 3 Yrotation Xrotation Zrotation
                  JOINT leftThumbIntermediate
                  {
                    OFFSET 0.40350402100066307 -0.01735099334274981 0.315629965828783
                    CHANNELS 3 Yrotation Xrotation Zrotation
                    JOINT leftThumbDistal
                    {
                      OFFSET 0.2320014489535681 -0.01842351809041043 0.21271298411519196
                      CHANNELS 3 Yrotation Xrotation Zrotation
                      End Site
                      {
                        OFFSET 0.2320014489535681 -0.01842351809041043 0.21271298411519196
                      }
                    }
                  }
                }
              }
            }
          }
        }
        JOINT rightShoulder
        {
          OFFSET -0.41379931360839656 1.1593397335613034 0
          CHANNELS 3 Yrotation Xrotation Zrotation
          JOINT rightUpperArm
          {
            OFFSET -1.0096991868951024 0 0
            CHANNELS 3 Yrotation Xrotation Zrotation
            JOINT rightLowerArm
            {
              OFFSET -2.4183809676716232 0 0
              CHANNELS 3 Yrotation Xrotation Zrotation
              JOINT rightHand
              {
                OFFSET -2.3615382962601132 0 0
                CHANNELS 3 Yrotation Xrotation Zrotation
                JOINT rightIndexProximal
                {
                  OFFSET -0.7243699271447109 0.08118285989887508 0.2022042461579805
                  CHANNELS 3 Yrotation Xrotation Zrotation
                  JOINT rightIndexIntermediate
                  {
                    OFFSET -0.36553107045252053 -0.010567764853200323 -0.014102670024158437
                    CHANNELS 3 Yrotation Xrotation Zrotation
                    JOINT rightIndexDistal
                    {
                      OFFSET -0.22505120770060527 -0.007821041598631284 -0.007511611613336286
                      CHANNELS 3 Yrotation Xrotation Zrotation
                      End Site
                      {
                        OFFSET -0.22505120770060527 -0.007821041598631284 -0.007511611613336286
                      }
                    }
                  }
                }
                JOINT rightLittleProximal
                {
                  OFFSET -0.6721063881632002 0.08118279568569564 -0.3209324945517917
                  CHANNELS 3 Yrotation Xrotation Zrotation
                  JOINT rightLittleIntermediate
                  {
                    OFFSET -0.34587329423120616 5.3042709780015684e-8 -5.929537746918179e-8
                    CHANNELS 3 Yrotation Xrotation Zrotation
                    JOINT rightLittleDistal
                    {
                      OFFSET -0.1992782500022232 0.0030983716482184676 0.0038310952896712935
                      CHANNELS 3 Yrotation Xrotation Zrotation
                      End Site
                      {
                        OFFSET -0.1992782500022232 0.0030983716482184676 0.0038310952896712935
                      }
                    }
                  }
                }
                JOINT rightMiddleProximal
                {
                  OFFSET -0.7301229696860206 0.08118412848995638 0.022516891543707507
                  CHANNELS 3 Yrotation Xrotation Zrotation
                  JOINT rightMiddleIntermediate
                  {
                    OFFSET -0.4076277831942017 -0.000001240188283180288 -1.6203245635504349e-7
                    CHANNELS 3 Yrotation Xrotation Zrotation
                    JOINT rightMiddleDistal
                    {
                      OFFSET -0.2514739255593972 0.0000013850839168938478 -1.8644847207816007e-8
                      CHANNELS 3 Yrotation Xrotation Zrotation
                      End Site
                      {
                        OFFSET -0.2514739255593972 0.0000013850839168938478 -1.8644847207816007e-8
                      }
                    }
                  }
                }
                JOINT rightRingProximal
                {
                  OFFSET -0.7218060861525873 0.08118280646416753 -0.1494689818508163
                  CHANNELS 3 Yrotation Xrotation Zrotation
                  JOINT rightRingIntermediate
                  {
                    OFFSET -0.3781267508900358 0.000001373626195677602 -1.4143108284514483e-7
                    CHANNELS 3 Yrotation Xrotation Zrotation
                    JOINT rightRingDistal
                    {
                      OFFSET -0.21814333268795483 -0.0027137626495670197 -0.004991775417842292
                      CHANNELS 3 Yrotation Xrotation Zrotation
                      End Site
                      {
                        OFFSET -0.21814333268795483 -0.0027137626495670197 -0.004991775417842292
                      }
                    }
                  }
                }
                JOINT rightThumbProximal
                {
                  OFFSET -0.10743676110519984 -0.16423092885053192 -0.07708859146227388
                  CHANNELS 3 Yrotation Xrotation Zrotation
                  JOINT rightThumbIntermediate
                  {
                    OFFSET -0.40350402100066307 -0.01735099334274981 0.315629965828783
                    CHANNELS 3 Yrotation Xrotation Zrotation
                    JOINT rightThumbDistal
                    {
                      OFFSET -0.2320014489535681 -0.01842351809041043 0.21271298411519196
                      CHANNELS 3 Yrotation Xrotation Zrotation
                      End Site
                      {
                        OFFSET -0.2320014489535681 -0.01842351809041043 0.21271298411519196
                      }
                    }
                  }
                }
              }
            }
          }
        }
      }
    }
  }
  JOINT leftUpperLeg
  {
    OFFSET 0.8487163290887698 -0.43932186100277326 0
    CHANNELS 3 Yrotation Xrotation Zrotation
    JOINT leftLowerLeg
    {
      OFFSET 0 -3.882816707004296 0
      CHANNELS 3 Yrotation Xrotation Zrotation
      JOINT leftFoot
      {
        OFFSET 0 -4.570431027442807 0.004629272230691511
        CHANNELS 3 Yrotation Xrotation Zrotation
        JOINT leftToes
        {
          OFFSET 0 -0.698875637876343 1.214565366696912
          CHANNELS 3 Yrotation Xrotation Zrotation
          End Site
          {
            OFFSET 0 -0.698875637876343 1.214565366696912
          }
        }
      }
    }
  }
  JOINT rightUpperLeg
  {
    OFFSET -0.8487163290887698 -0.43932186100277326 0
    CHANNELS 3 Yrotation Xrotation Zrotation
    JOINT rightLowerLeg
    {
      OFFSET 0 -3.882816707004296 0
      CHANNELS 3 Yrotation Xrotation Zrotation
      JOINT rightFoot
      {
        OFFSET 0 -4.570431027442807 0.004629272230691511
        CHANNELS 3 Yrotation Xrotation Zrotation
        JOINT rightToes
        {
          OFFSET 0 -0.698875637876343 1.214565366696912
          CHANNELS 3 Yrotation Xrotation Zrotation
          End Site
          {
            OFFSET 0 -0.698875637876343 1.214565366696912
          }
        }
      }
    }
  }
}
MOTION
Frames: 4
Frame Time: 0.03333333333333333
0.0028260627295821905 -0.08470074467595268 0.010576599277555943 -10.678861178309921 -3.734508795417954 -3.265216862835953 1.5541677072880145 3.2947609327667102 2.8051046397389086 0.7501797714953605 2.24992319811659 3.083768649164691 0 0 0 -0.07101667034548419 5.601426594324385 0.4488310491290879 1.435751694817209 -7.537226575179463 -0.2913136903394849 0 0 0 0 0 0 -17.603708198153655 1.0075215808924987 -10.750007760325445 -20.732295323961825 2.704141014301731 -64.07864123234195 -1.3675958864700877 -0.20172789279621972 0.020069231600907015 2.709972558519054 -32.95259499013403 -6.399195918641164 -1.0041585223487641 -0.5904806263636521 -7.558223506198607 1.5318495213321934 0.23423558675505013 -17.39050743969433 0.7174856355035806 0.05047439079353668 -8.048038419566945 5.1832815577263265 0.9168299116946027 -27.11224284318821 1.5343590568952292 0.23503493903404626 -17.419855658904304 1.457315887535706 0.21154491284072918 -16.519510978503682 2.535831561177314 -0.2838907440561404 -15.730995149581513 1.5343073302315104 0.2350269348387697 -17.419204336691315 1.6201056638073434 0.26278810074713294 -18.426938226446754 3.433094140886942 -0.02830122014707572 -21.17002076328962 1.8304214554671876 0.3379886686344881 -20.92336650478683 1.5737271268788566 0.24755697464759813 -17.881517983784533 1.3671794482457207 0.4558850927184497 4.561683030274946 25.10633452764794 12.859145577359962 22.0466744669991 4.71552369047207 -13.297165863255636 8.192006249042047 15.522970054769784 1.159540794363975 13.154639089391992 29.07824633089291 10.608502655253456 57.84121177450275 6.699075972183677 -0.9818116493140904 -0.14406430775401785 -2.8176509226178226 -19.74841699224164 7.405917794650972 1.2997336333640221 -0.5736422205414465 6.79186769233719 -1.174912153641054 0.18006079819681825 17.42507455002456 -0.5505056669882832 0.03881789901865738 8.06647452179377 -4.518036620587564 0.7476286426592978 26.47344644315298 -1.1764310853534026 0.18051478124048465 17.44820631397941 -1.117209728988077 0.1624451146227606 16.544274313419265 -2.0788454860996604 -0.3436265025637537 15.02781663741697 -1.1765278620160802 0.18055381489814268 17.449875059056435 -1.2423102971135405 0.20188883012683437 18.459359033854163 -2.8735475974233053 -0.1328604251932495 20.498618010572464 -1.403570620305112 0.2596359890480343 20.960668925956416 -1.2065119120168482 0.19013135104108062 17.909315563872866 0.6182348369785343 -0.5359511488932528 -3.969766003821376 -29.6724927549614 13.520062884622199 -22.431480791160887 -5.404460509250473 -15.76272090085584 -11.5733364890801 15.1099915808359 -10.395028141223982 7.354221705893175 2.17815613435475 12.142804062061773 4.603829714689817 0.4234164548493012 1.2791195758755565 -7.117402956627678 0.000014770868188688871 -4.933150056049667 0.0000012817030752266332 -10.369864346612385 0.5900913382824495 3.5274491501832386 -9.81627400365359 7.349732168862167 -4.42195686617882 -1.6097434832187485 -3.7086344100152124 3.314859092417121 -0.00005481156574864155 -7.273484041926133 0.000007587460433324078
0.0028090975247323513 -0.08463208012517143 0.010679333470761776 -10.678881328758575 -3.7246657104238805 -3.265552318667942 1.5544283340345824 3.321658003801349 2.801624627434396 0.750308442358813 2.2591707486675245 3.083863801108271 0 0 0 -0.07094776846280876 5.6014257364543845 0.45391878692977067 1.435148797091093 -7.537351451325173 -0.2862536349486251 0 0 0 0 0 0 -17.59334165027855 1.0184671756226538 -10.69486973646639 -20.808140680520527 2.6691535456750284 -64.09440091017724 -1.4227755267616573 -0.20983899486043317 0.0209657273473597 2.6920493288772596 -32.86190421624598 -6.281203360311503 -1.0045204989924819 -0.590297802375858 -7.554651040366819 1.5315465682460483 0.23417787651050584 -17.38691222958958 0.7171680670736948 0.050411841844547944 -8.044395878384506 5.188175969253121 0.9203264574070701 -27.108157183125616 1.5340611332628304 0.2349746140824252 -17.416249650546472 1.4570007909511957 0.21144546087360838 -16.515882994468523 2.5354874940938212 -0.28390261699165664 -15.727373156638057 1.5340040571334714 0.23493243197355168 -17.415576732592843 1.6197880006571639 0.26267257328603466 -18.423309564022507 3.435823673058989 -0.026640890348375957 -21.16611978338379 1.8301267214920336 0.3378618276810716 -20.919731015793875 1.5734189599673645 0.24747527841950986 -17.87789510569962 1.3639371747839082 0.45512264875802966 4.561124041405522 25.10260004493259 12.859425813360753 22.045429389832243 4.712193038029472 -13.29854058633332 8.191903000880357 15.555010950508334 1.1585448770828097 13.127056076193446 29.02050842263393 10.559331413325948 57.80916553601094 6.60831794758111 -0.9686212837130987 -0.1413591646289186 -2.736641404585509 -19.612240972569737 7.298787961116203 1.302477575977172 -0.5741519489781003 6.789114123188591 -1.1747202373830832 0.18001254640738193 17.42216632396757 -0.550317151750445 0.03878708645410032 8.063555585865473 -4.5235485826024755 0.7514570244725707 26.47021283638769 -1.1762338707070636 0.18046899740153388 17.445268952320816 -1.1170329641399523 0.16238372271485774 16.541363370944147 -2.0786246791309066 -0.3436244214530636 15.024901443884325 -1.1763388266625467 0.1804908888000388 17.446955011219952 -1.2421119054828955 0.20180837480162397 18.45647285480306 -2.8770162525609497 -0.13088430749391394 20.4954747144166 -1.4033924697363738 0.2595809734439652 20.957783747739338 -1.2063266112791557 0.19006376914892462 17.906411462797067 0.623824386867658 -0.537226956112921 -3.96894992270615 -29.66947091197941 13.52030260813486 -22.43047658133802 -5.401679113783853 -15.763679008249225 -11.57340315984155 15.117918998177453 -10.399691181357856 7.358195019212863 2.2317038372195612 12.12308451480715 4.61390058486468 0.35157166380647026 1.2896071914661107 -7.130173597012729 -8.453187374923083e-7 -4.953537591691006 1.2845845169932618e-8 -10.375306678486032 0.5878912607937014 3.5273104836742606 -9.752665778068165 7.340614175720034 -4.412933778555817 -1.6589950562026428 -3.702124865377747 3.315820149889288 -0.000019350735975533602 -7.249948828339311 0.000004548140081549599
0.0027923600282520056 -0.08460251622136283 0.01085422933101654 -10.678957722640998 -3.703931807842234 -3.2663943017629364 1.5551961820341973 3.4146276425371545 2.789398358443078 0.7507138346629053 2.28790534901168 3.0841597308867534 0 0 0 -0.07080996403994917 5.601429596869397 0.46423087423300197 1.4383292661914935 -7.5437313784810485 -0.27677143154124123 0 0 0 0 0 0 -17.56703785557333 1.0479114657667112 -10.551356715605644 -20.995782721423183 2.5494889761749966 -64.13387851953559 -1.585869946998131 -0.2338729433730265 0.023726319213704005 2.7323195018336914 -32.57472097394968 -5.74452691480414 -1.0217762957101006 -0.5927492772418712 -7.527622742661352 1.5291184178458026 0.2334059786669757 -17.358384643884527 0.7146444016621772 0.05005931323442401 -8.015971986326537 5.226638159312173 0.947873496637136 -27.076211215594753 1.5316387436280063 0.2342069850989171 -17.38780008209381 1.4545541740216066 0.2107183742981767 -16.48745051717897 2.532775161749261 -0.2839964532037944 -15.698936475481762 1.5315732393643282 0.2341784101234918 -17.38718930079377 1.6173791620150626 0.26187335273853773 -18.394899079890756 3.457277979888624 -0.013513831220490895 -21.135350269642704 1.8277401582288164 0.3369416304983074 -20.89130404142153 1.5710031805403748 0.24669011952933953 -17.84944925696836 1.3384006644736668 0.4491735821925445 4.556670822319789 25.073412367792713 12.86165807942831 22.0353521615837 4.685947516095247 -13.30935792004362 8.191001134308767 15.647452739034955 1.1588028761991 13.036620434207018 28.849273595692168 10.472656191606896 57.6041346310964 6.411760896159852 -0.9400926417067479 -0.13556683821485102 -2.56298855053876 -19.283475897636347 7.064672311166266 1.3240445987900373 -0.578080146661338 6.767670272063818 -1.1732322120099203 0.17952733378373553 17.399309811025237 -0.5487682067506933 0.03856062294284284 8.0406973224126 -4.566912223742271 0.7816834238793153 26.444443040177955 -1.1747436046397075 0.17999731180869782 17.422443393634076 -1.1155290425553221 0.16192799252559764 16.518521643358802 -2.076903409923245 -0.3435344534375093 15.0020810254561 -1.1748477069636696 0.180023258651473 17.424095429624526 -1.2406388166039959 0.201328417640193 18.43362317888999 -2.904314355059958 -0.11515471905510924 20.470550175293514 -1.401921800521127 0.25902972350776526 20.934937716279205 -1.20484022049294 0.18958692061022142 17.883574296420594 0.6685270696272337 -0.5521542620664465 -3.962658043251221 -29.64581172801547 13.522389881292733 -22.42232784879552 -5.3807318876986905 -15.770643165508716 -11.571575033502182 15.132275390997833 -10.420756456920968 7.360947855387855 2.347635280740921 12.108298212451214 4.625528771668621 0.22710801827818405 1.3056540337628544 -7.133194613154522 0.000005393439667166162 -4.959831241695597 -0.000004576620816977053 -10.387507777641245 0.5739371074015858 3.539442080588885 -9.647527982231882 7.336200727876189 -4.3999383470970095 -1.708931647651476 -3.7000005149136728 3.3047049233061614 -0.000021950198167391356 -7.180704580345634 0.0000020037200856982185
0.0027292135637253523 -0.08495156102116752 0.010951154865324497 -10.679254132264534 -3.6818735870774364 -3.261986777782164 1.559062606295439 3.560809628235547 2.764516021553424 0.7511998238452395 2.3235767186477947 3.0845271331371675 0 0 0 -0.07089154341354703 5.580081462408227 0.45847667767347167 1.4608866075872489 -7.602181687823731 -0.2872155571604682 0 0 0 0 0 0 -17.561125340759084 1.0643340304463949 -10.467652236562083 -21.15972381035748 2.393268893643213 -64.15472298970752 -1.7726378414335284 -0.26136732649535993 0.026921797888469896 2.9439144220292883 -32.364005355128214 -4.99419556768752 -1.0555149389510328 -0.5975224495808124 -7.474764321167594 1.5243686802370988 0.2319220544741686 -17.302727466238235 0.7097130470691477 0.049366365602894695 -7.960397352081905 5.301887840513277 1.0015991100562758 -27.01376186985681 1.5268803641809 0.23267370162571874 -17.332213190595642 1.4498047160805607 0.20933447796114496 -16.431878820876243 2.5274659469114624 -0.2841572047489625 -15.64337104520391 1.5268173135271086 0.23269699383008144 -17.33156125608934 1.612656634146575 0.26028563743835287 -18.339288181307744 3.4992575025861963 0.012002756883298495 -21.075194448711898 1.8231004739115007 0.3351980079555673 -20.835709822909582 1.5662515276485036 0.24516353150702566 -17.79390501638276 1.2876409990596147 0.432670636068065 4.547895283230728 25.016545563940277 12.866002691862189 22.01571586895371 4.635964444924884 -13.329820057269957 8.185173427464878 15.737119039752603 1.170384573680135 12.908547359505414 28.729389038771117 10.485363099795801 57.270799507247105 6.458820476991618 -0.9469326161775965 -0.13689238697807274 -2.6224654533344047 -19.193605638894102 7.105314556907093 1.3662113767803 -0.585765999996928 6.7257028527933524 -1.1703090147408564 0.1786144985552621 17.35463806264666 -0.545746257874287 0.038160106296438394 7.996024685276096 -4.651736510165238 0.840591173408398 26.394043200897535 -1.171838616072577 0.17911134387748148 17.377783857217548 -1.1125890620945715 0.16105783364105286 16.47384561776758 -2.0735370221238028 -0.3434184181778924 14.957445460013865 -1.171938593882935 0.17914605528192637 17.37939921987065 -1.237728128086606 0.2003377940010882 18.38896058398659 -2.957718305309167 -0.08448208683743598 20.421819080777055 -1.3990611813042362 0.2579206068944451 20.890301146896245 -1.201934091058888 0.18864085421549703 17.838897092413315 0.7564815933664847 -0.5876192128517177 -3.9461333666548284 -29.600327031029025 13.526367781068913 -22.406655358141958 -5.338875517394925 -15.784708830819657 -11.570434682633078 15.11116566043939 -10.452377444301913 7.359069266799114 2.4376406430011395 12.119967910133816 4.633634672632058 0.17359504043184154 1.303704576581108 -7.145622999719515 -0.0000053506760064154805 -4.959004682524827 -0.00000313384891027303 -10.440949205631489 0.5305618428613494 3.5417188623083353 -9.58309566292036 7.385838403922758 -4.40046731377814 -1.6939673766110483 -3.7271263643929164 3.298247505977171 -1.9282417290092896e-7 -7.173079120989833 0.0000017208732301931756
